{
	"asset":{
		"generator":"Khronos glTF Blender I/O v3.6.27",
		"version":"2.0"
	},
	"scene":0,
	"scenes":[
		{
			"name":"Scene",
			"nodes":[
				0
			]
		}
	],
	"nodes":[
		{
			"mesh":0,
			"name":"Vert",
			"rotation":[
				0,
				0,
				0.06825316697359085,
				0.9976680278778076
			],
			"scale":[
				19.12540054321289,
				19.12540054321289,
				19.12540054321289
			],
			"translation":[
				0.6396336555480957,
				0.2878350615501404,
				0
			]
		}
	],
	"materials":[
		{
			"doubleSided":true,
			"name":"Material",
			"pbrMetallicRoughness":{
				"baseColorFactor":[
					0.17144092917442322,
					0.0781872346997261,
					0.32314321398735046,
					1
				],
				"metallicFactor":0.699999988079071,
				"roughnessFactor":0.30000001192092896
			}
		},
		{
			"doubleSided":true,
			"name":"green",
			"pbrMetallicRoughness":{
				"baseColorFactor":[
					0.25818243622779846,
					0.658374547958374,
					0.08022001385688782,
					1
				],
				"metallicFactor":0.699999988079071,
				"roughnessFactor":0
			}
		},
		{
			"doubleSided":true,
			"name":"brown",
			"pbrMetallicRoughness":{
				"baseColorFactor":[
					0.07035678625106812,
					0.07035678625106812,
					0.07035678625106812,
					1
				],
				"metallicFactor":0.699999988079071,
				"roughnessFactor":0.30000001192092896
			}
		},
		{
			"doubleSided":true,
			"name":"black eyes",
			"pbrMetallicRoughness":{
				"baseColorFactor":[
					0.012286464683711529,
					0.010329805314540863,
					0.0284260306507349,
					1
				],
				"metallicFactor":0.699999988079071,
				"roughnessFactor":0.30000001192092896
			}
		},
		{
			"doubleSided":true,
			"emissiveFactor":[
				1,
				1,
				1
			],
			"name":"eyes",
			"pbrMetallicRoughness":{
				"baseColorFactor":[
					0.8000000715255737,
					0.44817864894866943,
					0.5722443461418152,
					1
				],
				"metallicFactor":0.699999988079071,
				"roughnessFactor":0.30000001192092896
			}
		},
		{
			"doubleSided":true,
			"name":"red",
			"pbrMetallicRoughness":{
				"baseColorFactor":[
					0.6514059901237488,
					0.022173777222633362,
					0.0047769695520401,
					1
				],
				"metallicFactor":0.699999988079071,
				"roughnessFactor":0.30000001192092896
			}
		}
	],
	"meshes":[
		{
			"name":"Vert",
			"primitives":[
				{
					"attributes":{
						"POSITION":0,
						"NORMAL":1,
						"TEXCOORD_0":2
					},
					"indices":3,
					"material":0
				},
				{
					"attributes":{
						"POSITION":4,
						"NORMAL":5,
						"TEXCOORD_0":6
					},
					"indices":7,
					"material":1
				},
				{
					"attributes":{
						"POSITION":8,
						"NORMAL":9,
						"TEXCOORD_0":10
					},
					"indices":11,
					"material":2
				},
				{
					"attributes":{
						"POSITION":12,
						"NORMAL":13,
						"TEXCOORD_0":14
					},
					"indices":15,
					"material":3
				},
				{
					"attributes":{
						"POSITION":16,
						"NORMAL":17,
						"TEXCOORD_0":18
					},
					"indices":19,
					"material":4
				},
				{
					"attributes":{
						"POSITION":20,
						"NORMAL":21,
						"TEXCOORD_0":22
					},
					"indices":23,
					"material":5
				}
			]
		}
	],
	"accessors":[
		{
			"bufferView":0,
			"componentType":5126,
			"count":42653,
			"max":[
				3.868643283843994,
				4.663631916046143,
				3.293452501296997
			],
			"min":[
				-9.098072052001953,
				0.09566961228847504,
				-3.293452501296997
			],
			"type":"VEC3"
		},
		{
			"bufferView":1,
			"componentType":5126,
			"count":42653,
			"type":"VEC3"
		},
		{
			"bufferView":2,
			"componentType":5126,
			"count":42653,
			"type":"VEC2"
		},
		{
			"bufferView":3,
			"componentType":5123,
			"count":214080,
			"type":"SCALAR"
		},
		{
			"bufferView":4,
			"componentType":5126,
			"count":10168,
			"max":[
				1.1359871625900269,
				3.1049623489379883,
				3.293452501296997
			],
			"min":[
				-5.765404224395752,
				-3.166020393371582,
				-3.293452501296997
			],
			"type":"VEC3"
		},
		{
			"bufferView":5,
			"componentType":5126,
			"count":10168,
			"type":"VEC3"
		},
		{
			"bufferView":6,
			"componentType":5126,
			"count":10168,
			"type":"VEC2"
		},
		{
			"bufferView":7,
			"componentType":5123,
			"count":50880,
			"type":"SCALAR"
		},
		{
			"bufferView":8,
			"componentType":5126,
			"count":10836,
			"max":[
				-0.5455243587493896,
				1.3500996828079224,
				1.0613735914230347
			],
			"min":[
				-3.3490962982177734,
				-2.880366325378418,
				-1.0613735914230347
			],
			"type":"VEC3"
		},
		{
			"bufferView":9,
			"componentType":5126,
			"count":10836,
			"type":"VEC3"
		},
		{
			"bufferView":10,
			"componentType":5126,
			"count":10836,
			"type":"VEC2"
		},
		{
			"bufferView":11,
			"componentType":5123,
			"count":56448,
			"type":"SCALAR"
		},
		{
			"bufferView":12,
			"componentType":5126,
			"count":1896,
			"max":[
				-1.7056277990341187,
				1.7612558603286743,
				0.9105031490325928
			],
			"min":[
				-3.028156280517578,
				0.8522003889083862,
				-0.910503089427948
			],
			"type":"VEC3"
		},
		{
			"bufferView":13,
			"componentType":5126,
			"count":1896,
			"type":"VEC3"
		},
		{
			"bufferView":14,
			"componentType":5126,
			"count":1896,
			"type":"VEC2"
		},
		{
			"bufferView":15,
			"componentType":5123,
			"count":9216,
			"type":"SCALAR"
		},
		{
			"bufferView":16,
			"componentType":5126,
			"count":3279,
			"max":[
				-1.8968286514282227,
				1.6871358156204224,
				0.8717552423477173
			],
			"min":[
				-2.7657058238983154,
				0.9930081367492676,
				-0.8717553019523621
			],
			"type":"VEC3"
		},
		{
			"bufferView":17,
			"componentType":5126,
			"count":3279,
			"type":"VEC3"
		},
		{
			"bufferView":18,
			"componentType":5126,
			"count":3279,
			"type":"VEC2"
		},
		{
			"bufferView":19,
			"componentType":5123,
			"count":18816,
			"type":"SCALAR"
		},
		{
			"bufferView":20,
			"componentType":5126,
			"count":1604,
			"max":[
				-0.487127423286438,
				1.6112570762634277,
				2.094510078430176
			],
			"min":[
				-2.9598209857940674,
				0.13070400059223175,
				-2.094510078430176
			],
			"type":"VEC3"
		},
		{
			"bufferView":21,
			"componentType":5126,
			"count":1604,
			"type":"VEC3"
		},
		{
			"bufferView":22,
			"componentType":5126,
			"count":1604,
			"type":"VEC2"
		},
		{
			"bufferView":23,
			"componentType":5123,
			"count":7488,
			"type":"SCALAR"
		}
	],
	"bufferViews":[
		{
			"buffer":0,
			"byteLength":511836,
			"byteOffset":0,
			"target":34962
		},
		{
			"buffer":0,
			"byteLength":511836,
			"byteOffset":511836,
			"target":34962
		},
		{
			"buffer":0,
			"byteLength":341224,
			"byteOffset":1023672,
			"target":34962
		},
		{
			"buffer":0,
			"byteLength":428160,
			"byteOffset":1364896,
			"target":34963
		},
		{
			"buffer":0,
			"byteLength":122016,
			"byteOffset":1793056,
			"target":34962
		},
		{
			"buffer":0,
			"byteLength":122016,
			"byteOffset":1915072,
			"target":34962
		},
		{
			"buffer":0,
			"byteLength":81344,
			"byteOffset":2037088,
			"target":34962
		},
		{
			"buffer":0,
			"byteLength":101760,
			"byteOffset":2118432,
			"target":34963
		},
		{
			"buffer":0,
			"byteLength":130032,
			"byteOffset":2220192,
			"target":34962
		},
		{
			"buffer":0,
			"byteLength":130032,
			"byteOffset":2350224,
			"target":34962
		},
		{
			"buffer":0,
			"byteLength":86688,
			"byteOffset":2480256,
			"target":34962
		},
		{
			"buffer":0,
			"byteLength":112896,
			"byteOffset":2566944,
			"target":34963
		},
		{
			"buffer":0,
			"byteLength":22752,
			"byteOffset":2679840,
			"target":34962
		},
		{
			"buffer":0,
			"byteLength":22752,
			"byteOffset":2702592,
			"target":34962
		},
		{
			"buffer":0,
			"byteLength":15168,
			"byteOffset":2725344,
			"target":34962
		},
		{
			"buffer":0,
			"byteLength":18432,
			"byteOffset":2740512,
			"target":34963
		},
		{
			"buffer":0,
			"byteLength":39348,
			"byteOffset":2758944,
			"target":34962
		},
		{
			"buffer":0,
			"byteLength":39348,
			"byteOffset":2798292,
			"target":34962
		},
		{
			"buffer":0,
			"byteLength":26232,
			"byteOffset":2837640,
			"target":34962
		},
		{
			"buffer":0,
			"byteLength":37632,
			"byteOffset":2863872,
			"target":34963
		},
		{
			"buffer":0,
			"byteLength":19248,
			"byteOffset":2901504,
			"target":34962
		},
		{
			"buffer":0,
			"byteLength":19248,
			"byteOffset":2920752,
			"target":34962
		},
		{
			"buffer":0,
			"byteLength":12832,
			"byteOffset":2940000,
			"target":34962
		},
		{
			"buffer":0,
			"byteLength":14976,
			"byteOffset":2952832,
			"target":34963
		}
	],
	"buffers":[
		{
			"byteLength":2967808,
			"uri":"data:application/octet-stream;base64,"
		}
	]
}
