{
	"asset":{
		"generator":"Khronos glTF Blender I/O v3.6.27",
		"version":"2.0"
	},
	"scene":0,
	"scenes":[
		{
			"name":"Scene",
			"nodes":[
				0
			]
		}
	],
	"nodes":[
		{
			"mesh":0,
			"name":"BL|Block_1_curve_",
			"rotation":[
				0.6532815098762512,
				0.27059805393218994,
				-0.27059808373451233,
				0.6532815098762512
			],
			"scale":[
				0.050000011920928955,
				0.050000011920928955,
				0.050000011920928955
			]
		}
	],
	"materials":[
		{
			"doubleSided":true,
			"name":"Material.003",
			"pbrMetallicRoughness":{
				"baseColorFactor":[
					0,
					0,
					0.10461650788784027,
					1
				],
				"metallicFactor":0.5272727012634277,
				"roughnessFactor":0.3618181645870209
			}
		},
		{
			"doubleSided":true,
			"name":"Material.004",
			"pbrMetallicRoughness":{
				"baseColorFactor":[
					0.31398868560791016,
					0.31398868560791016,
					1,
					1
				],
				"metallicFactor":0.5272727012634277,
				"roughnessFactor":0.3618181645870209
			}
		},
		{
			"doubleSided":true,
			"name":"Material.008",
			"pbrMetallicRoughness":{
				"baseColorFactor":[
					0.0368894599378109,
					0.15292617678642273,
					0.3277781903743744,
					1
				],
				"metallicFactor":0.5272727012634277,
				"roughnessFactor":0.3618181645870209
			}
		},
		{
			"doubleSided":true,
			"name":"Material.009",
			"pbrMetallicRoughness":{
				"baseColorFactor":[
					1,
					0.6938719749450684,
					0.0802198275923729,
					1
				],
				"metallicFactor":0.5272727012634277,
				"roughnessFactor":0.3618181645870209
			}
		},
		{
			"doubleSided":true,
			"name":"Material.001",
			"pbrMetallicRoughness":{
				"baseColorFactor":[
					0.0368894599378109,
					0,
					0,
					1
				],
				"metallicFactor":0.5272727012634277,
				"roughnessFactor":0.3618181645870209
			}
		},
		{
			"doubleSided":true,
			"name":"Material.002",
			"pbrMetallicRoughness":{
				"baseColorFactor":[
					1,
					0.3185468912124634,
					0,
					1
				],
				"metallicFactor":0,
				"roughnessFactor":0.5
			}
		},
		{
			"doubleSided":true,
			"name":"Material.005",
			"pbrMetallicRoughness":{
				"baseColorFactor":[
					0.8148468732833862,
					0.177888423204422,
					0,
					1
				],
				"metallicFactor":0.5272727012634277,
				"roughnessFactor":0.3618181645870209
			}
		},
		{
			"doubleSided":true,
			"name":"Material.006",
			"pbrMetallicRoughness":{
				"metallicFactor":0.5272727012634277,
				"roughnessFactor":0.3618181645870209
			}
		},
		{
			"doubleSided":true,
			"name":"Material.007",
			"pbrMetallicRoughness":{
				"baseColorFactor":[
					0.024157634004950523,
					0.09758733212947845,
					0.23839758336544037,
					1
				],
				"metallicFactor":0.5272727012634277,
				"roughnessFactor":0.3618181645870209
			}
		},
		{
			"doubleSided":true,
			"name":"Material.010",
			"pbrMetallicRoughness":{
				"baseColorFactor":[
					0.02028856985270977,
					0.029556844383478165,
					0.04231142997741699,
					1
				],
				"metallicFactor":0.5345454812049866,
				"roughnessFactor":0.5
			}
		},
		{
			"doubleSided":true,
			"name":"Material.011",
			"pbrMetallicRoughness":{
				"baseColorFactor":[
					0.8227859139442444,
					0.048171836882829666,
					0,
					1
				],
				"metallicFactor":0.5199999809265137,
				"roughnessFactor":0.5
			}
		},
		{
			"doubleSided":true,
			"name":"Material.012",
			"pbrMetallicRoughness":{
				"baseColorFactor":[
					0.5840786099433899,
					0.5775806307792664,
					0.5840786099433899,
					1
				],
				"metallicFactor":0,
				"roughnessFactor":0.5
			}
		},
		{
			"doubleSided":true,
			"name":"Material.013",
			"pbrMetallicRoughness":{
				"baseColorFactor":[
					0.02028856985270977,
					0.017641957849264145,
					0.02028856985270977,
					1
				],
				"metallicFactor":0,
				"roughnessFactor":0.5
			}
		},
		{
			"doubleSided":true,
			"name":"Material.014",
			"pbrMetallicRoughness":{
				"baseColorFactor":[
					0.2803124785423279,
					0.0471673421561718,
					0.0001011755593935959,
					1
				],
				"metallicFactor":0,
				"roughnessFactor":0.5
			}
		},
		{
			"doubleSided":true,
			"name":"Material.016",
			"pbrMetallicRoughness":{
				"baseColorFactor":[
					1,
					0.29613831639289856,
					0.06301002949476242,
					1
				],
				"metallicFactor":0,
				"roughnessFactor":0.5
			}
		},
		{
			"doubleSided":true,
			"name":"Material.015",
			"pbrMetallicRoughness":{
				"baseColorFactor":[
					1,
					0.14702729880809784,
					0,
					1
				],
				"metallicFactor":0,
				"roughnessFactor":0.5
			}
		}
	],
	"meshes":[
		{
			"name":"Mesh.002",
			"primitives":[
				{
					"attributes":{
						"POSITION":0,
						"NORMAL":1
					},
					"indices":2,
					"material":0
				},
				{
					"attributes":{
						"POSITION":3,
						"NORMAL":4
					},
					"indices":5,
					"material":1
				},
				{
					"attributes":{
						"POSITION":6,
						"NORMAL":7
					},
					"indices":8,
					"material":2
				},
				{
					"attributes":{
						"POSITION":9,
						"NORMAL":10
					},
					"indices":11,
					"material":3
				},
				{
					"attributes":{
						"POSITION":12,
						"NORMAL":13
					},
					"indices":14,
					"material":4
				},
				{
					"attributes":{
						"POSITION":15,
						"NORMAL":16
					},
					"indices":17,
					"material":5
				},
				{
					"attributes":{
						"POSITION":18,
						"NORMAL":19
					},
					"indices":20,
					"material":6
				},
				{
					"attributes":{
						"POSITION":21,
						"NORMAL":22
					},
					"indices":23,
					"material":7
				},
				{
					"attributes":{
						"POSITION":24,
						"NORMAL":25
					},
					"indices":26,
					"material":8
				},
				{
					"attributes":{
						"POSITION":27,
						"NORMAL":28
					},
					"indices":29,
					"material":9
				},
				{
					"attributes":{
						"POSITION":30,
						"NORMAL":31
					},
					"indices":32,
					"material":10
				},
				{
					"attributes":{
						"POSITION":33,
						"NORMAL":34
					},
					"indices":35,
					"material":11
				},
				{
					"attributes":{
						"POSITION":36,
						"NORMAL":37
					},
					"indices":38,
					"material":12
				},
				{
					"attributes":{
						"POSITION":39,
						"NORMAL":40
					},
					"indices":41,
					"material":13
				},
				{
					"attributes":{
						"POSITION":42,
						"NORMAL":43
					},
					"indices":44,
					"material":14
				},
				{
					"attributes":{
						"POSITION":45,
						"NORMAL":46
					},
					"indices":47,
					"material":15
				}
			]
		}
	],
	"accessors":[
		{
			"bufferView":0,
			"componentType":5126,
			"count":1677,
			"max":[
				55.2662467956543,
				226.35452270507812,
				70.58364868164062
			],
			"min":[
				-43.217533111572266,
				186.35452270507812,
				-31.397907257080078
			],
			"type":"VEC3"
		},
		{
			"bufferView":1,
			"componentType":5126,
			"count":1677,
			"type":"VEC3"
		},
		{
			"bufferView":2,
			"componentType":5123,
			"count":6027,
			"type":"SCALAR"
		},
		{
			"bufferView":3,
			"componentType":5126,
			"count":197,
			"max":[
				36.94289779663086,
				221.91880798339844,
				40.70338439941406
			],
			"min":[
				-19.791324615478516,
				221.91880798339844,
				-5.515297889709473
			],
			"type":"VEC3"
		},
		{
			"bufferView":4,
			"componentType":5126,
			"count":197,
			"type":"VEC3"
		},
		{
			"bufferView":5,
			"componentType":5123,
			"count":585,
			"type":"SCALAR"
		},
		{
			"bufferView":6,
			"componentType":5126,
			"count":1104,
			"max":[
				225.3134765625,
				44.318275451660156,
				45.58970642089844
			],
			"min":[
				185.3134765625,
				-32.694786071777344,
				-32.297828674316406
			],
			"type":"VEC3"
		},
		{
			"bufferView":7,
			"componentType":5126,
			"count":1104,
			"type":"VEC3"
		},
		{
			"bufferView":8,
			"componentType":5123,
			"count":2208,
			"type":"SCALAR"
		},
		{
			"bufferView":9,
			"componentType":5126,
			"count":978,
			"max":[
				225.3134765625,
				71.43067169189453,
				73.02388763427734
			],
			"min":[
				185.3134765625,
				-5.769339561462402,
				-5.437352180480957
			],
			"type":"VEC3"
		},
		{
			"bufferView":10,
			"componentType":5126,
			"count":978,
			"type":"VEC3"
		},
		{
			"bufferView":11,
			"componentType":5123,
			"count":1956,
			"type":"SCALAR"
		},
		{
			"bufferView":12,
			"componentType":5126,
			"count":1225,
			"max":[
				-83.56037902832031,
				182.7977294921875,
				69.94241333007812
			],
			"min":[
				-183.59906005859375,
				82.75902557373047,
				-31.65648651123047
			],
			"type":"VEC3"
		},
		{
			"bufferView":13,
			"componentType":5126,
			"count":1225,
			"type":"VEC3"
		},
		{
			"bufferView":14,
			"componentType":5123,
			"count":4515,
			"type":"SCALAR"
		},
		{
			"bufferView":15,
			"componentType":5126,
			"count":228,
			"max":[
				-124.3363265991211,
				161.9331817626953,
				40.086605072021484
			],
			"min":[
				-165.13011169433594,
				121.1393814086914,
				-9.038649559020996
			],
			"type":"VEC3"
		},
		{
			"bufferView":16,
			"componentType":5126,
			"count":228,
			"type":"VEC3"
		},
		{
			"bufferView":17,
			"componentType":5123,
			"count":648,
			"type":"SCALAR"
		},
		{
			"bufferView":18,
			"componentType":5126,
			"count":580,
			"max":[
				211.2432098388672,
				211.51812744140625,
				57.44207763671875
			],
			"min":[
				95.90419006347656,
				96.17909240722656,
				-42.543434143066406
			],
			"type":"VEC3"
		},
		{
			"bufferView":19,
			"componentType":5126,
			"count":580,
			"type":"VEC3"
		},
		{
			"bufferView":20,
			"componentType":5123,
			"count":1704,
			"type":"SCALAR"
		},
		{
			"bufferView":21,
			"componentType":5126,
			"count":191,
			"max":[
				199.61537170410156,
				173.20394897460938,
				39.01056671142578
			],
			"min":[
				158.1571044921875,
				131.7456817626953,
				-8.652037620544434
			],
			"type":"VEC3"
		},
		{
			"bufferView":22,
			"componentType":5126,
			"count":191,
			"type":"VEC3"
		},
		{
			"bufferView":23,
			"componentType":5123,
			"count":573,
			"type":"SCALAR"
		},
		{
			"bufferView":24,
			"componentType":5126,
			"count":141,
			"max":[
				192.77430725097656,
				166.30868530273438,
				29.090248107910156
			],
			"min":[
				165.05235290527344,
				138.58673095703125,
				-0.8925125598907471
			],
			"type":"VEC3"
		},
		{
			"bufferView":25,
			"componentType":5126,
			"count":141,
			"type":"VEC3"
		},
		{
			"bufferView":26,
			"componentType":5123,
			"count":417,
			"type":"SCALAR"
		},
		{
			"bufferView":27,
			"componentType":5126,
			"count":816,
			"max":[
				-181.1558380126953,
				32.923622131347656,
				67.541748046875
			],
			"min":[
				-221.1558380126953,
				-58.421592712402344,
				-25.852893829345703
			],
			"type":"VEC3"
		},
		{
			"bufferView":28,
			"componentType":5126,
			"count":816,
			"type":"VEC3"
		},
		{
			"bufferView":29,
			"componentType":5123,
			"count":1656,
			"type":"SCALAR"
		},
		{
			"bufferView":30,
			"componentType":5126,
			"count":192,
			"max":[
				-107.1887435913086,
				-104.48787689208984,
				56.854644775390625
			],
			"min":[
				-180.1733856201172,
				-177.47251892089844,
				-19.08530044555664
			],
			"type":"VEC3"
		},
		{
			"bufferView":31,
			"componentType":5126,
			"count":192,
			"type":"VEC3"
		},
		{
			"bufferView":32,
			"componentType":5123,
			"count":372,
			"type":"SCALAR"
		},
		{
			"bufferView":33,
			"componentType":5126,
			"count":4842,
			"max":[
				158.6938018798828,
				-127.35564422607422,
				67.20072937011719
			],
			"min":[
				-62.26362609863281,
				-215.8549041748047,
				-29.112369537353516
			],
			"type":"VEC3"
		},
		{
			"bufferView":34,
			"componentType":5126,
			"count":4842,
			"type":"VEC3"
		},
		{
			"bufferView":35,
			"componentType":5123,
			"count":11514,
			"type":"SCALAR"
		},
		{
			"bufferView":36,
			"componentType":5126,
			"count":792,
			"max":[
				34.04966735839844,
				-175.61265563964844,
				67.20072937011719
			],
			"min":[
				-62.26362609863281,
				-215.61265563964844,
				-29.112369537353516
			],
			"type":"VEC3"
		},
		{
			"bufferView":37,
			"componentType":5126,
			"count":792,
			"type":"VEC3"
		},
		{
			"bufferView":38,
			"componentType":5123,
			"count":2376,
			"type":"SCALAR"
		},
		{
			"bufferView":39,
			"componentType":5126,
			"count":627,
			"max":[
				176.1477508544922,
				-90.18172454833984,
				67.15023040771484
			],
			"min":[
				84.95794677734375,
				-181.37147521972656,
				-20.37303924560547
			],
			"type":"VEC3"
		},
		{
			"bufferView":40,
			"componentType":5126,
			"count":627,
			"type":"VEC3"
		},
		{
			"bufferView":41,
			"componentType":5123,
			"count":1677,
			"type":"SCALAR"
		},
		{
			"bufferView":42,
			"componentType":5126,
			"count":126,
			"max":[
				182.15640258789062,
				-84.17308807373047,
				45.61555099487305
			],
			"min":[
				142.3123016357422,
				-124.01720428466797,
				-36.58379364013672
			],
			"type":"VEC3"
		},
		{
			"bufferView":43,
			"componentType":5126,
			"count":126,
			"type":"VEC3"
		},
		{
			"bufferView":44,
			"componentType":5123,
			"count":240,
			"type":"SCALAR"
		},
		{
			"bufferView":45,
			"componentType":5126,
			"count":211,
			"max":[
				171.2692108154297,
				-95.06026458740234,
				36.3914909362793
			],
			"min":[
				90.05313873291016,
				-176.2763214111328,
				-36.58379364013672
			],
			"type":"VEC3"
		},
		{
			"bufferView":46,
			"componentType":5126,
			"count":211,
			"type":"VEC3"
		},
		{
			"bufferView":47,
			"componentType":5123,
			"count":513,
			"type":"SCALAR"
		}
	],
	"bufferViews":[
		{
			"buffer":0,
			"byteLength":20124,
			"byteOffset":0,
			"target":34962
		},
		{
			"buffer":0,
			"byteLength":20124,
			"byteOffset":20124,
			"target":34962
		},
		{
			"buffer":0,
			"byteLength":12054,
			"byteOffset":40248,
			"target":34963
		},
		{
			"buffer":0,
			"byteLength":2364,
			"byteOffset":52304,
			"target":34962
		},
		{
			"buffer":0,
			"byteLength":2364,
			"byteOffset":54668,
			"target":34962
		},
		{
			"buffer":0,
			"byteLength":1170,
			"byteOffset":57032,
			"target":34963
		},
		{
			"buffer":0,
			"byteLength":13248,
			"byteOffset":58204,
			"target":34962
		},
		{
			"buffer":0,
			"byteLength":13248,
			"byteOffset":71452,
			"target":34962
		},
		{
			"buffer":0,
			"byteLength":4416,
			"byteOffset":84700,
			"target":34963
		},
		{
			"buffer":0,
			"byteLength":11736,
			"byteOffset":89116,
			"target":34962
		},
		{
			"buffer":0,
			"byteLength":11736,
			"byteOffset":100852,
			"target":34962
		},
		{
			"buffer":0,
			"byteLength":3912,
			"byteOffset":112588,
			"target":34963
		},
		{
			"buffer":0,
			"byteLength":14700,
			"byteOffset":116500,
			"target":34962
		},
		{
			"buffer":0,
			"byteLength":14700,
			"byteOffset":131200,
			"target":34962
		},
		{
			"buffer":0,
			"byteLength":9030,
			"byteOffset":145900,
			"target":34963
		},
		{
			"buffer":0,
			"byteLength":2736,
			"byteOffset":154932,
			"target":34962
		},
		{
			"buffer":0,
			"byteLength":2736,
			"byteOffset":157668,
			"target":34962
		},
		{
			"buffer":0,
			"byteLength":1296,
			"byteOffset":160404,
			"target":34963
		},
		{
			"buffer":0,
			"byteLength":6960,
			"byteOffset":161700,
			"target":34962
		},
		{
			"buffer":0,
			"byteLength":6960,
			"byteOffset":168660,
			"target":34962
		},
		{
			"buffer":0,
			"byteLength":3408,
			"byteOffset":175620,
			"target":34963
		},
		{
			"buffer":0,
			"byteLength":2292,
			"byteOffset":179028,
			"target":34962
		},
		{
			"buffer":0,
			"byteLength":2292,
			"byteOffset":181320,
			"target":34962
		},
		{
			"buffer":0,
			"byteLength":1146,
			"byteOffset":183612,
			"target":34963
		},
		{
			"buffer":0,
			"byteLength":1692,
			"byteOffset":184760,
			"target":34962
		},
		{
			"buffer":0,
			"byteLength":1692,
			"byteOffset":186452,
			"target":34962
		},
		{
			"buffer":0,
			"byteLength":834,
			"byteOffset":188144,
			"target":34963
		},
		{
			"buffer":0,
			"byteLength":9792,
			"byteOffset":188980,
			"target":34962
		},
		{
			"buffer":0,
			"byteLength":9792,
			"byteOffset":198772,
			"target":34962
		},
		{
			"buffer":0,
			"byteLength":3312,
			"byteOffset":208564,
			"target":34963
		},
		{
			"buffer":0,
			"byteLength":2304,
			"byteOffset":211876,
			"target":34962
		},
		{
			"buffer":0,
			"byteLength":2304,
			"byteOffset":214180,
			"target":34962
		},
		{
			"buffer":0,
			"byteLength":744,
			"byteOffset":216484,
			"target":34963
		},
		{
			"buffer":0,
			"byteLength":58104,
			"byteOffset":217228,
			"target":34962
		},
		{
			"buffer":0,
			"byteLength":58104,
			"byteOffset":275332,
			"target":34962
		},
		{
			"buffer":0,
			"byteLength":23028,
			"byteOffset":333436,
			"target":34963
		},
		{
			"buffer":0,
			"byteLength":9504,
			"byteOffset":356464,
			"target":34962
		},
		{
			"buffer":0,
			"byteLength":9504,
			"byteOffset":365968,
			"target":34962
		},
		{
			"buffer":0,
			"byteLength":4752,
			"byteOffset":375472,
			"target":34963
		},
		{
			"buffer":0,
			"byteLength":7524,
			"byteOffset":380224,
			"target":34962
		},
		{
			"buffer":0,
			"byteLength":7524,
			"byteOffset":387748,
			"target":34962
		},
		{
			"buffer":0,
			"byteLength":3354,
			"byteOffset":395272,
			"target":34963
		},
		{
			"buffer":0,
			"byteLength":1512,
			"byteOffset":398628,
			"target":34962
		},
		{
			"buffer":0,
			"byteLength":1512,
			"byteOffset":400140,
			"target":34962
		},
		{
			"buffer":0,
			"byteLength":480,
			"byteOffset":401652,
			"target":34963
		},
		{
			"buffer":0,
			"byteLength":2532,
			"byteOffset":402132,
			"target":34962
		},
		{
			"buffer":0,
			"byteLength":2532,
			"byteOffset":404664,
			"target":34962
		},
		{
			"buffer":0,
			"byteLength":1026,
			"byteOffset":407196,
			"target":34963
		}
	],
	"buffers":[
		{
			"byteLength":408224,
			"uri":"data:application/octet-stream;base64,"
		}
	]
}
